<svg width="277" height="317" viewBox="0 0 277 317" fill="none" xmlns="http://www.w3.org/2000/svg">
<g clip-path="url(#clip0)">
<path opacity="0.1" d="M270.037 90.5148C266.467 80.4618 261.643 71.1358 255.732 62.865L57.2813 60.4943L220.673 32.656C210.119 27.5547 198.882 24.8503 187.522 24.6775C171.892 9.51502 152.644 0.880028 132.643 0.0575298C112.642 -0.764969 92.9559 6.26899 76.5153 20.1127C63.3755 11.9208 48.8097 7.6652 34.0364 7.70174C-10.0562 7.70174 -46.7983 44.75 -55.0415 93.8802L270.037 90.5148Z" fill="black"/>
<path opacity="0.1" d="M277 131.719C277.01 118.396 274.911 105.195 270.817 92.8333L-73.1249 136.628C-76.6619 144.408 -79.3686 152.702 -81.1796 161.31L25.327 180.564L-83.6099 194.604C-80.3331 250.22 -41.0284 294.14 6.98902 294.14C31.1564 294.14 53.1151 283.008 69.3898 264.857C85.7109 283.349 107.881 294.721 132.31 294.721C168.556 294.721 199.836 269.687 214.404 233.489C243.631 222.257 266.317 193.982 274.104 158.634L139.406 133.311H276.98C276.98 132.782 277 132.252 277 131.719Z" fill="black"/>
<path opacity="0.1" d="M205.407 285.058C213.354 285.058 219.797 283.984 219.797 282.659C219.797 281.335 213.354 280.261 205.407 280.261C197.46 280.261 191.017 281.335 191.017 282.659C191.017 283.984 197.46 285.058 205.407 285.058Z" fill="black"/>
<path opacity="0.1" d="M251.417 295.355C259.365 295.355 265.807 294.281 265.807 292.956C265.807 291.631 259.365 290.557 251.417 290.557C243.47 290.557 237.027 291.631 237.027 292.956C237.027 294.281 243.47 295.355 251.417 295.355Z" fill="black"/>
<path opacity="0.1" d="M222.634 317.004C230.582 317.004 237.024 315.93 237.024 314.605C237.024 313.28 230.582 312.207 222.634 312.207C214.687 312.207 208.244 313.28 208.244 314.605C208.244 315.93 214.687 317.004 222.634 317.004Z" fill="black"/>
</g>
<defs>
<clipPath id="clip0">
<rect width="375" height="317" fill="white" transform="translate(-98)"/>
</clipPath>
</defs>
</svg>
