<svg width="200" height="200" viewBox="0 0 200 200" fill="none" xmlns="http://www.w3.org/2000/svg">
<g clip-path="url(#clip0)">
<path d="M175.008 148.668C173.568 146.269 170.832 144.96 168.057 145.342C164.345 145.853 160.559 146.112 156.804 146.112C127.871 146.112 100.678 130.741 85.8371 105.997C68.7844 77.5646 70.3902 41.8776 89.9282 15.0796C91.5769 12.8184 91.7129 9.7925 90.2735 7.39286C88.8345 4.99285 86.0975 3.68297 83.3229 4.06585C70.436 5.84073 58.2006 10.1469 46.9563 16.8654C1.25862 44.17 -13.6627 103.491 13.6939 149.103C41.1339 194.853 100.491 209.603 146.182 182.302C157.425 175.584 167.008 166.854 174.662 156.355C176.311 154.093 176.447 151.068 175.008 148.668ZM139.002 170.333C99.3435 194.03 48.7278 180.357 25.6855 141.937C2.28731 102.926 15.0495 52.1883 54.135 28.8339C59.1402 25.8429 64.3735 23.4111 69.7931 21.5525C55.7126 50.4824 56.889 84.8895 73.8452 113.161C90.7063 141.275 120.427 158.648 152.846 159.98C148.64 163.878 144.015 167.338 139.002 170.333Z" fill="white"/>
<path d="M157.086 57.5931L150.359 47.4192C149.599 46.2692 149.391 44.8396 149.793 43.5201L153.344 31.8517C154.606 27.7034 149.981 24.2535 146.365 26.6448L136.191 33.3712C135.041 34.1313 133.612 34.3399 132.292 33.9376L120.624 30.3877C116.476 29.1252 113.026 33.7501 115.418 37.3664L122.144 47.5403C122.904 48.6903 123.113 50.1199 122.71 51.4394L119.16 63.1078C117.897 67.2561 122.522 70.7053 126.139 68.3147L136.313 61.5883C137.463 60.8282 138.893 60.6196 140.212 61.0219L151.88 64.5718C156.027 65.8335 159.478 61.2087 157.086 57.5931Z" fill="white"/>
<path d="M195.187 98.9013L191.815 97.6868C190.757 97.3056 189.922 96.4717 189.542 95.4135L188.327 92.041C187.128 88.7119 182.42 88.7119 181.221 92.041L180.007 95.4135C179.626 96.4717 178.792 97.3062 177.734 97.6868L174.361 98.9013C171.032 100.1 171.032 104.808 174.361 106.007L177.734 107.222C178.792 107.603 179.626 108.437 180.007 109.495L181.221 112.867C182.42 116.196 187.128 116.196 188.327 112.867L189.542 109.495C189.923 108.437 190.757 107.602 191.815 107.222L195.187 106.007C198.517 104.809 198.517 100.1 195.187 98.9013Z" fill="white"/>
<path d="M197.75 15.2989C196.795 14.9554 196.044 14.204 195.702 13.2503C194.622 10.2499 190.379 10.2499 189.298 13.2503C188.955 14.204 188.204 14.9559 187.25 15.2989C184.25 16.3789 184.25 20.6214 187.25 21.702C188.204 22.0455 188.956 22.7969 189.298 23.7505C190.378 26.7504 194.621 26.7504 195.702 23.7505C196.045 22.7969 196.796 22.0449 197.75 21.702C200.75 20.6219 200.75 16.3795 197.75 15.2989Z" fill="white"/>
</g>
<defs>
<clipPath id="clip0">
<rect width="200" height="200" fill="white"/>
</clipPath>
</defs>
</svg>
