<svg width="223" height="223" viewBox="0 0 223 223" fill="none" xmlns="http://www.w3.org/2000/svg">
<path d="M182.994 78.2954C189.171 79.5219 195.036 81.6627 200.41 84.5617C201.525 82.354 201.258 79.6111 199.54 77.6264C175.1 49.4392 139.42 33.2717 101.643 33.2717C63.8672 33.2717 28.1872 49.4169 3.74644 77.6041C1.49414 80.2132 1.73944 84.1603 4.32624 86.4349C6.91304 88.7095 10.8378 88.4419 13.0901 85.8328C35.1671 60.3885 67.4352 45.782 101.621 45.782C132.306 45.8043 161.407 57.5341 182.994 78.2954ZM101.666 146.31C94.8196 146.31 89.2446 151.841 89.2446 158.62C89.2446 165.399 94.8196 170.93 101.666 170.93C106.683 170.93 110.987 167.986 112.972 163.727C110.965 158.932 109.538 153.826 108.802 148.518C106.75 147.136 104.297 146.31 101.666 146.31ZM135.272 88.1074C139.442 85.2307 143.991 82.8446 148.808 81.0383C134.737 72.8319 118.547 68.3942 101.666 68.3942C73.3001 68.3942 46.8969 80.9268 29.2353 102.759C27.0722 105.435 27.4736 109.382 30.1273 111.567C32.8033 113.752 36.7281 113.329 38.8689 110.675C54.1667 91.7646 77.0465 80.9268 101.666 80.9268C113.485 80.9045 124.902 83.4021 135.272 88.1074ZM54.6573 128.292C52.7172 131.146 53.4754 135.049 56.3075 136.989C57.3779 137.725 58.5821 138.082 59.7863 138.082C61.771 138.082 63.7334 137.123 64.9376 135.339C73.0994 123.23 86.8362 116.005 101.666 116.005C105.278 116.005 108.846 116.451 112.281 117.276C113.819 113.262 115.759 109.449 118.034 105.881C112.793 104.32 107.285 103.494 101.666 103.494C82.7107 103.494 65.1383 112.771 54.6573 128.292Z" fill="white"/>
<path d="M168 93.4062C143.918 93.4062 124.406 112.918 124.406 137C124.406 161.082 143.918 180.594 168 180.594C192.082 180.594 211.594 161.082 211.594 137C211.594 112.918 192.082 93.4062 168 93.4062ZM168 172.156C148.576 172.156 132.844 156.424 132.844 137C132.844 117.576 148.576 101.844 168 101.844C187.424 101.844 203.156 117.576 203.156 137C203.156 156.424 187.424 172.156 168 172.156ZM185.895 126.066L174.961 137L185.895 147.934C186.721 148.76 186.721 150.096 185.895 150.922L181.922 154.895C181.096 155.721 179.76 155.721 178.934 154.895L168 143.961L157.066 154.895C156.24 155.721 154.904 155.721 154.078 154.895L150.105 150.922C149.279 150.096 149.279 148.76 150.105 147.934L161.039 137L150.105 126.066C149.279 125.24 149.279 123.904 150.105 123.078L154.078 119.105C154.904 118.279 156.24 118.279 157.066 119.105L168 130.039L178.934 119.105C179.76 118.279 181.096 118.279 181.922 119.105L185.895 123.078C186.721 123.904 186.721 125.24 185.895 126.066V126.066Z" fill="white"/>
</svg>
