<svg width="200" height="200" viewBox="0 0 200 200" fill="none" xmlns="http://www.w3.org/2000/svg">
<g clip-path="url(#clip0)">
<rect x="53" y="0.000976562" width="12" height="135" rx="6" fill="white"/>
<rect x="53" y="166.001" width="12" height="34" rx="6" fill="white"/>
<rect x="147.811" y="199.994" width="12" height="135" rx="6" transform="rotate(180 147.811 199.994)" fill="white"/>
<rect x="146.676" y="34" width="12" height="34" rx="6" transform="rotate(180 146.676 34)" fill="white"/>
<path d="M84 151C84 164.807 72.8071 176 59 176C45.1929 176 34 164.807 34 151C34 137.193 45.1929 126 59 126C72.8071 126 84 137.193 84 151ZM45.5 151C45.5 158.456 51.5442 164.5 59 164.5C66.4558 164.5 72.5 158.456 72.5 151C72.5 143.544 66.4558 137.5 59 137.5C51.5442 137.5 45.5 143.544 45.5 151Z" fill="white"/>
<path d="M117 50C117 36.1929 128.193 25 142 25C155.807 25 167 36.1929 167 50C167 63.8071 155.807 75 142 75C128.193 75 117 63.8071 117 50ZM155.5 50C155.5 42.5442 149.456 36.5 142 36.5C134.544 36.5 128.5 42.5442 128.5 50C128.5 57.4558 134.544 63.5 142 63.5C149.456 63.5 155.5 57.4558 155.5 50Z" fill="white"/>
</g>
<defs>
<clipPath id="clip0">
<rect width="200" height="200" fill="white"/>
</clipPath>
</defs>
</svg>
