<svg width="200" height="200" viewBox="0 0 200 200" fill="none" xmlns="http://www.w3.org/2000/svg">
<g clip-path="url(#clip0)">
<path d="M100 45C69.6734 45 45 69.673 45 100C45 130.327 69.6726 155 100 155C130.327 155 155 130.327 155 100C155 69.673 130.327 45 100 45ZM100 142.531C76.5495 142.531 57.4701 123.452 57.4701 100.001C57.4701 76.5499 76.5486 57.4712 100 57.4712C123.451 57.4712 142.53 76.5499 142.53 100.001C142.53 123.452 123.451 142.531 100 142.531Z" fill="white"/>
<path d="M99.5571 38C99.5739 38 99.5918 38 99.6087 38C103.718 37.967 107.028 33.9804 107 29.0966L106.884 8.78427C106.855 3.89926 103.508 -0.0778428 99.3913 0.00115692C95.2815 0.0341717 91.9724 4.02071 92.0002 8.90454L92.1163 29.2169C92.144 34.0795 95.471 38 99.5571 38Z" fill="white"/>
<path d="M153.607 51.7395C155.461 51.7395 157.314 51.0564 158.718 49.6929L170.298 38.4473C173.082 35.7432 173.051 31.3886 170.229 28.7221C167.405 26.0529 162.861 26.0831 160.077 28.7872L148.496 40.0327C145.712 42.7368 145.743 47.0915 148.565 49.758C149.964 51.0802 151.785 51.7395 153.607 51.7395Z" fill="white"/>
<path d="M191.158 92C191.138 92 191.116 92 191.096 92L170.783 92.1161C165.9 92.1439 161.967 95.4987 162 99.6087C162.033 103.702 165.986 107 170.842 107C170.863 107 170.884 107 170.904 107L191.217 106.884C196.1 106.856 200.033 103.501 200 99.3913C199.966 95.2993 196.013 92 191.158 92Z" fill="white"/>
<path d="M159.384 148.422C156.562 145.737 152.016 145.767 149.233 148.488C146.448 151.208 146.48 155.59 149.301 158.272L161.04 169.434C162.439 170.764 164.26 171.428 166.082 171.428C167.936 171.428 169.789 170.74 171.193 169.369C173.977 166.648 173.946 162.267 171.124 159.584L159.384 148.422Z" fill="white"/>
<path d="M100.391 162C96.2815 162.033 92.9724 166.02 93.0002 170.904L93.1163 191.217C93.1441 196.081 96.47 200 100.557 200C100.574 200 100.592 200 100.609 200C104.718 199.967 108.028 195.98 108 191.096L107.884 170.783C107.856 165.898 104.485 161.984 100.391 162Z" fill="white"/>
<path d="M41.2832 149.212L29.7033 160.457C26.9189 163.161 26.9504 167.516 29.7722 170.182C31.1706 171.505 32.9921 172.164 34.8136 172.164C36.6677 172.164 38.5208 171.481 39.925 170.117L51.5049 158.872C54.2893 156.168 54.2577 151.813 51.436 149.146C48.6123 146.477 44.0667 146.507 41.2832 149.212Z" fill="white"/>
<path d="M38.0008 100.473C37.9678 96.5244 34.0152 93.3428 29.1583 93.3428C29.1382 93.3428 29.117 93.3428 29.0969 93.3428L8.78474 93.4548C3.90066 93.4816 -0.0318335 96.7178 0.00118295 100.682C0.0341994 104.631 3.98674 107.812 8.8437 107.812C8.86374 107.812 8.88497 107.812 8.90501 107.812L29.2184 107.7C34.1013 107.673 38.0338 104.436 38.0008 100.473Z" fill="white"/>
<path d="M41.3561 51.0065C42.803 52.3367 44.6875 53 46.5721 53C48.4903 53 50.4076 52.3127 51.8604 50.941C54.7412 48.2205 54.7085 43.8395 51.7891 41.1569L39.6429 29.9946C36.7224 27.3083 32.0195 27.3406 29.1396 30.0601C26.2588 32.7806 26.2915 37.1615 29.2109 39.8442L41.3561 51.0065Z" fill="white"/>
</g>
<defs>
<clipPath id="clip0">
<rect width="200" height="200" fill="white"/>
</clipPath>
</defs>
</svg>
